<svg width="20" height="20" viewBox="0 0 20 20" fill="none" xmlns="http://www.w3.org/2000/svg">
<path fill-rule="evenodd" clip-rule="evenodd" d="M14.707 12.7069C14.5194 12.8944 14.2651 12.9997 14 12.9997C13.7348 12.9997 13.4805 12.8944 13.293 12.7069L9.99997 9.41392L6.70697 12.7069C6.61472 12.8024 6.50438 12.8786 6.38237 12.931C6.26037 12.9834 6.12915 13.011 5.99637 13.0122C5.86359 13.0133 5.73191 12.988 5.60902 12.9377C5.48612 12.8875 5.37447 12.8132 5.28057 12.7193C5.18668 12.6254 5.11243 12.5138 5.06215 12.3909C5.01187 12.268 4.98656 12.1363 4.98772 12.0035C4.98887 11.8707 5.01646 11.7395 5.06887 11.6175C5.12128 11.4955 5.19746 11.3852 5.29297 11.2929L9.29297 7.29292C9.4805 7.10545 9.73481 7.00013 9.99997 7.00013C10.2651 7.00013 10.5194 7.10545 10.707 7.29292L14.707 11.2929C14.8944 11.4804 14.9998 11.7348 14.9998 11.9999C14.9998 12.2651 14.8944 12.5194 14.707 12.7069Z" fill="#646464"/>
</svg>
