<svg width="20" height="20" viewBox="0 0 20 20" fill="none" xmlns="http://www.w3.org/2000/svg">
<path d="M3.57733 3.57757C3.42105 3.73385 3.33325 3.94582 3.33325 4.16683V5.8335C3.33325 6.05451 3.42105 6.26647 3.57733 6.42275C3.73361 6.57903 3.94557 6.66683 4.16659 6.66683H15.8333C16.0543 6.66683 16.2662 6.57903 16.4225 6.42275C16.5788 6.26647 16.6666 6.05451 16.6666 5.8335V4.16683C16.6666 3.94582 16.5788 3.73385 16.4225 3.57757C16.2662 3.42129 16.0543 3.3335 15.8333 3.3335H4.16659C3.94557 3.3335 3.73361 3.42129 3.57733 3.57757Z" stroke="#646464" stroke-width="2" stroke-linecap="round" stroke-linejoin="round"/>
<path d="M3.57733 10.2442C3.42105 10.4005 3.33325 10.6125 3.33325 10.8335V15.8335C3.33325 16.0545 3.42105 16.2665 3.57733 16.4228C3.73361 16.579 3.94557 16.6668 4.16659 16.6668H9.16658C9.3876 16.6668 9.59956 16.579 9.75584 16.4228C9.91212 16.2665 9.99992 16.0545 9.99992 15.8335V10.8335C9.99992 10.6125 9.91212 10.4005 9.75584 10.2442C9.59956 10.088 9.3876 10.0002 9.16658 10.0002H4.16659C3.94557 10.0002 3.73361 10.088 3.57733 10.2442Z" stroke="#646464" stroke-width="2" stroke-linecap="round" stroke-linejoin="round"/>
<path d="M13.5773 10.2442C13.421 10.4005 13.3333 10.6125 13.3333 10.8335V15.8335C13.3333 16.0545 13.421 16.2665 13.5773 16.4228C13.7336 16.579 13.9456 16.6668 14.1666 16.6668H15.8333C16.0543 16.6668 16.2662 16.579 16.4225 16.4228C16.5788 16.2665 16.6666 16.0545 16.6666 15.8335V10.8335C16.6666 10.6125 16.5788 10.4005 16.4225 10.2442C16.2662 10.088 16.0543 10.0002 15.8333 10.0002H14.1666C13.9456 10.0002 13.7336 10.088 13.5773 10.2442Z" stroke="#646464" stroke-width="2" stroke-linecap="round" stroke-linejoin="round"/>
</svg>
