<svg width="20" height="20" viewBox="0 0 20 20" fill="none" xmlns="http://www.w3.org/2000/svg">
<path d="M14.1667 16.6668H18.3334V15.0002C18.3334 14.4806 18.1715 13.974 17.8702 13.5507C17.5689 13.1274 17.1433 12.8085 16.6524 12.6383C16.1615 12.4681 15.6298 12.4551 15.1311 12.601C14.6325 12.747 14.1917 13.0446 13.8701 13.4527M14.1667 16.6668H5.83341M14.1667 16.6668V15.0002C14.1667 14.4535 14.0617 13.931 13.8701 13.4527M13.8701 13.4527C13.5606 12.6793 13.0265 12.0164 12.3367 11.5494C11.6469 11.0825 10.8331 10.8329 10.0001 10.8329C9.1671 10.8329 8.35322 11.0825 7.66342 11.5494C6.97362 12.0164 6.43954 12.6793 6.13008 13.4527M5.83341 16.6668H1.66675V15.0002C1.66679 14.4806 1.82869 13.974 2.12997 13.5507C2.43124 13.1274 2.8569 12.8085 3.34779 12.6383C3.83868 12.4681 4.3704 12.4551 4.86903 12.601C5.36766 12.747 5.80844 13.0446 6.13008 13.4527M5.83341 16.6668V15.0002C5.83341 14.4535 5.93841 13.931 6.13008 13.4527M12.5001 5.8335C12.5001 6.49654 12.2367 7.13242 11.7678 7.60126C11.299 8.0701 10.6631 8.3335 10.0001 8.3335C9.33704 8.3335 8.70116 8.0701 8.23231 7.60126C7.76347 7.13242 7.50008 6.49654 7.50008 5.8335C7.50008 5.17045 7.76347 4.53457 8.23231 4.06573C8.70116 3.59689 9.33704 3.3335 10.0001 3.3335C10.6631 3.3335 11.299 3.59689 11.7678 4.06573C12.2367 4.53457 12.5001 5.17045 12.5001 5.8335ZM17.5001 8.3335C17.5001 8.77552 17.3245 9.19945 17.0119 9.51201C16.6994 9.82457 16.2754 10.0002 15.8334 10.0002C15.3914 10.0002 14.9675 9.82457 14.6549 9.51201C14.3423 9.19945 14.1667 8.77552 14.1667 8.3335C14.1667 7.89147 14.3423 7.46755 14.6549 7.15499C14.9675 6.84242 15.3914 6.66683 15.8334 6.66683C16.2754 6.66683 16.6994 6.84242 17.0119 7.15499C17.3245 7.46755 17.5001 7.89147 17.5001 8.3335ZM5.83341 8.3335C5.83341 8.77552 5.65782 9.19945 5.34526 9.51201C5.0327 9.82457 4.60878 10.0002 4.16675 10.0002C3.72472 10.0002 3.3008 9.82457 2.98824 9.51201C2.67568 9.19945 2.50008 8.77552 2.50008 8.3335C2.50008 7.89147 2.67568 7.46755 2.98824 7.15499C3.3008 6.84242 3.72472 6.66683 4.16675 6.66683C4.60878 6.66683 5.0327 6.84242 5.34526 7.15499C5.65782 7.46755 5.83341 7.89147 5.83341 8.3335Z" stroke="#646464" stroke-width="2" stroke-linecap="round" stroke-linejoin="round"/>
</svg>
