<svg width="20" height="20" viewBox="0 0 20 20" fill="none" xmlns="http://www.w3.org/2000/svg">
<path d="M14.1666 11.6668V16.6668M11.6666 14.1668H16.6666M4.99992 8.3335H6.66659C7.10861 8.3335 7.53254 8.1579 7.8451 7.84534C8.15766 7.53278 8.33325 7.10886 8.33325 6.66683V5.00016C8.33325 4.55814 8.15766 4.13421 7.8451 3.82165C7.53254 3.50909 7.10861 3.3335 6.66659 3.3335H4.99992C4.55789 3.3335 4.13397 3.50909 3.82141 3.82165C3.50885 4.13421 3.33325 4.55814 3.33325 5.00016V6.66683C3.33325 7.10886 3.50885 7.53278 3.82141 7.84534C4.13397 8.1579 4.55789 8.3335 4.99992 8.3335ZM13.3333 8.3335H14.9999C15.4419 8.3335 15.8659 8.1579 16.1784 7.84534C16.491 7.53278 16.6666 7.10886 16.6666 6.66683V5.00016C16.6666 4.55814 16.491 4.13421 16.1784 3.82165C15.8659 3.50909 15.4419 3.3335 14.9999 3.3335H13.3333C12.8912 3.3335 12.4673 3.50909 12.1547 3.82165C11.8422 4.13421 11.6666 4.55814 11.6666 5.00016V6.66683C11.6666 7.10886 11.8422 7.53278 12.1547 7.84534C12.4673 8.1579 12.8912 8.3335 13.3333 8.3335ZM4.99992 16.6668H6.66659C7.10861 16.6668 7.53254 16.4912 7.8451 16.1787C8.15766 15.8661 8.33325 15.4422 8.33325 15.0002V13.3335C8.33325 12.8915 8.15766 12.4675 7.8451 12.155C7.53254 11.8424 7.10861 11.6668 6.66659 11.6668H4.99992C4.55789 11.6668 4.13397 11.8424 3.82141 12.155C3.50885 12.4675 3.33325 12.8915 3.33325 13.3335V15.0002C3.33325 15.4422 3.50885 15.8661 3.82141 16.1787C4.13397 16.4912 4.55789 16.6668 4.99992 16.6668Z" stroke="#646464" stroke-width="2" stroke-linecap="round" stroke-linejoin="round"/>
</svg>
